# xmcd CD database file
#
# Track frame offsets:
#	150
#	28476
#	52293
#	76123
#	107168
#	132955
#	174870
#	204592
#	246342
#
# Disc length: 3427 seconds
#
# Revision: 4
# Processed by: cddbd v1.5.2PL0 Copyright (c) Steve Scherf et al.
# Submitted via: CDex 1.94
#
DISCID=7d0d6109
DTITLE=Dr. John with The Donald Harrison Band - Funky New Orleans
DYEAR=2000
DGENRE=R&B
TTITLE0=Hu-Ta-Nay
TTITLE1=Big Chief
TTITLE2=Shave 'Em Dry
TTITLE3=Ja-Ki-Mo-Fi-Na-Hay
TTITLE4=Mamzelle Zizi
TTITLE5=Livin' On Borrowed Time
TTITLE6=You Ain't So Such A Much
TTITLE7=Hu-Ta-Nay
TTITLE8=Walkin' Home
EXTD=with th  Donald Harrison Band YEAR: 2000
EXTT0=recorded live in 1991
EXTT1=
EXTT2=
EXTT3=
EXTT4=
EXTT5=
EXTT6=
EXTT7=
EXTT8=
PLAYORDER=
